# xmcd
#
# Track frame offsets: 
#        198
#        22380
#        44983
#        68813
#        92968
#        109085
#        125488
#        147133
#        164223
#
# Disc length: 2484 seconds
#
# Revision: 0
# Processed by: cddbd v1.5.2PL0 Copyright (c) Steve Scherf et al.
# Submitted via: ExactAudioCopy v0.95b4
#
DISCID=9009b209
DTITLE=Н.Гулькина и группа Звезды - Надо лишь мечтать
DYEAR=1991
DGENRE=Pop
TTITLE0=Айвенго
TTITLE1=Надо лишь мечтать
TTITLE2=Посвящение
TTITLE3=Ночь под Рождество
TTITLE4=Это Китай
TTITLE5=Обманщица ночь
TTITLE6=Дневной ангел
TTITLE7=Прощай навек
TTITLE8=Это ты
EXTD=
EXTT0=
EXTT1=
EXTT2=
EXTT3=
EXTT4=
EXTT5=
EXTT6=
EXTT7=
EXTT8=
PLAYORDER=
